<?xml version="1.0" encoding="UTF-8" standalone="no"?>
<!-- Created with Inkscape (http://www.inkscape.org/) -->

<svg
   version="1.1"
   id="svg1"
   width="128"
   height="128"
   viewBox="0 0 128 128"
   sodipodi:docname="periodico.svg"
   inkscape:version="1.3.2 (091e20e, 2023-11-25)"
   inkscape:export-filename="../../../../Downloads/periodico.png"
   inkscape:export-xdpi="480"
   inkscape:export-ydpi="480"
   xmlns:inkscape="http://www.inkscape.org/namespaces/inkscape"
   xmlns:sodipodi="http://sodipodi.sourceforge.net/DTD/sodipodi-0.dtd"
   xmlns="http://www.w3.org/2000/svg"
   xmlns:svg="http://www.w3.org/2000/svg">
  <defs
     id="defs1" />
  <sodipodi:namedview
     id="namedview1"
     pagecolor="#ffffff"
     bordercolor="#000000"
     borderopacity="0.25"
     inkscape:showpageshadow="2"
     inkscape:pageopacity="0.0"
     inkscape:pagecheckerboard="0"
     inkscape:deskcolor="#d1d1d1"
     showgrid="false"
     inkscape:zoom="1.3037281"
     inkscape:cx="122.34146"
     inkscape:cy="63.66358"
     inkscape:window-width="1512"
     inkscape:window-height="831"
     inkscape:window-x="0"
     inkscape:window-y="38"
     inkscape:window-maximized="1"
     inkscape:current-layer="g1" />
  <g
     inkscape:groupmode="layer"
     inkscape:label="Image"
     id="g1">
    <g
       id="g28"
       transform="translate(-2.6846088,-1.5340622)">
      <g
         id="g29"
         transform="translate(2.3010933,0.76703108)">
        <path
           style="fill:#c1c1c1;fill-opacity:1;stroke:#000006;stroke-width:7.653;stroke-linecap:round;stroke-linejoin:round;stroke-dasharray:none;stroke-opacity:1;paint-order:stroke fill markers"
           d="m 8.8577495,57.643652 c 0,0 10.0898285,10.531873 13.9606125,17.565496 2.888893,5.249424 5.509576,10.921523 7.880849,17.724589 2.162443,6.203949 4.62111,20.511433 4.62111,20.511433 L 57.755981,98.679816 43.949421,46.329944 Z"
           id="path2"
           sodipodi:nodetypes="csscccc" />
        <path
           style="fill:none;fill-opacity:1;stroke:#dedfdf;stroke-width:3.95339;stroke-linecap:round;stroke-linejoin:round;stroke-dasharray:none;stroke-opacity:1;paint-order:stroke fill markers"
           d="m 13.876352,59.878945 c 0,0 7.388105,8.49454 10.471197,13.760645 3.122711,5.333778 5.625584,11.522287 8.223541,17.846535 2.099801,5.111578 3.516263,15.055765 3.516263,15.055765"
           id="path4"
           sodipodi:nodetypes="cssc" />
        <path
           style="fill:none;stroke:#000000;stroke-width:2.44157;stroke-linecap:round;stroke-linejoin:round;stroke-dasharray:none;stroke-opacity:1;paint-order:stroke fill markers"
           d="M 21.757693,65.482457 35.372495,60.688513"
           id="path11" />
        <path
           style="fill:none;stroke:#000000;stroke-width:2.44157;stroke-linecap:round;stroke-linejoin:round;stroke-dasharray:none;stroke-opacity:1;paint-order:stroke fill markers"
           d="M 25.695541,71.099596 37.201007,66.880925"
           id="path12" />
        <path
           style="fill:none;stroke:#000000;stroke-width:2.44157;stroke-linecap:round;stroke-linejoin:round;stroke-dasharray:none;stroke-opacity:1;paint-order:stroke fill markers"
           d="M 27.828141,76.197628 38.758334,71.978957"
           id="path13" />
        <path
           style="fill:none;stroke:#000000;stroke-width:2.44157;stroke-linecap:round;stroke-linejoin:round;stroke-dasharray:none;stroke-opacity:1;paint-order:stroke fill markers"
           d="m 30.896266,81.758603 9.39613,-3.451639"
           id="path14"
           sodipodi:nodetypes="cc" />
        <path
           style="fill:none;stroke:#000000;stroke-width:2.44157;stroke-linecap:round;stroke-linejoin:round;stroke-dasharray:none;stroke-opacity:1;paint-order:stroke fill markers"
           d="m 32.870008,87.319579 6.903279,-2.876367"
           id="path15" />
        <path
           style="fill:#efefef;fill-opacity:1;stroke:#000006;stroke-width:7.653;stroke-linecap:round;stroke-linejoin:round;stroke-dasharray:none;stroke-opacity:1;paint-order:stroke fill markers"
           d="M 95.340504,17.37452 23.623097,37.509086 c 0,0 8.826165,14.962964 11.210638,23.220662 2.76502,9.575575 3.142008,19.74705 3.354897,29.71157 0.155972,7.300508 -2.484795,23.195602 -2.484795,23.195602 0,0 14.312038,-3.79079 20.892784,-5.97383 20.009665,-6.63782 58.878439,-20.488742 58.878439,-20.488742 0,0 1.41326,-15.836953 0.67599,-23.91291 -0.85417,-9.356314 -2.46976,-18.944466 -6.52269,-27.420549 C 106.271,28.819471 95.340504,17.37452 95.340504,17.37452 Z"
           id="path1"
           sodipodi:nodetypes="ccsscscssc" />
        <path
           style="fill:none;fill-opacity:1;stroke:#c7cace;stroke-width:3.95339;stroke-linecap:round;stroke-linejoin:round;stroke-dasharray:none;stroke-opacity:1;paint-order:stroke fill markers"
           d="m 27.014582,39.426664 c 2.142675,4.325575 7.116987,12.390435 9.028478,18.594452 3.236876,10.505745 4.078927,20.254784 4.23737,31.246733 0.09363,6.495762 -0.979724,13.440541 -0.979724,13.440541 l -1.084746,7.59322"
           id="path3"
           sodipodi:nodetypes="csscc" />
        <path
           style="fill:none;stroke:#000000;stroke-width:2.44157;stroke-linecap:round;stroke-linejoin:round;stroke-dasharray:none;stroke-opacity:1;paint-order:stroke fill markers"
           d="M 44.141179,84.48974 109.14706,62.348531"
           id="path5"
           sodipodi:nodetypes="cc" />
        <path
           style="fill:none;stroke:#000000;stroke-width:2.44157;stroke-linecap:round;stroke-linejoin:round;stroke-dasharray:none;stroke-opacity:1;paint-order:stroke fill markers"
           d="M 109.37172,68.180694 45.483483,89.858958"
           id="path6"
           sodipodi:nodetypes="cc" />
        <path
           style="fill:none;stroke:#000000;stroke-width:2.44157;stroke-linecap:round;stroke-linejoin:round;stroke-dasharray:none;stroke-opacity:1;paint-order:stroke fill markers"
           d="M 45.291726,95.995206 110.10585,74.13482"
           id="path7" />
        <path
           style="fill:none;stroke:#000000;stroke-width:2.44157;stroke-linecap:round;stroke-linejoin:round;stroke-dasharray:none;stroke-opacity:1;paint-order:stroke fill markers"
           d="M 109.82503,80.238169 44.90821,102.51498"
           id="path8"
           sodipodi:nodetypes="cc" />
        <path
           style="fill:none;stroke:#000000;stroke-width:2.44157;stroke-linecap:round;stroke-linejoin:round;stroke-dasharray:none;stroke-opacity:1;paint-order:stroke fill markers"
           d="M 81.690463,64.957704 108.09921,56.165755"
           id="path9"
           sodipodi:nodetypes="cc" />
        <path
           style="fill:none;stroke:#000000;stroke-width:2.44157;stroke-linecap:round;stroke-linejoin:round;stroke-dasharray:none;stroke-opacity:1;paint-order:stroke fill markers"
           d="M 106.46245,50.595142 80.718047,59.092641"
           id="path10"
           sodipodi:nodetypes="cc" />
        <path
           style="fill:none;stroke:#000000;stroke-width:2.44157;stroke-linecap:round;stroke-linejoin:round;stroke-dasharray:none;stroke-opacity:0;paint-order:stroke fill markers"
           d="M 41.840086,59.369472 78.082305,47.672248 c 0,0 3.359167,5.743434 3.976728,8.948639 0.560715,2.91017 -0.333331,8.884834 -0.333331,8.884834 L 43.949421,78.161734 c 0,0 0.0833,-5.963809 -0.234388,-8.921735 -0.357632,-3.329859 -1.874947,-9.870527 -1.874947,-9.870527 z"
           id="path16"
           sodipodi:nodetypes="ccsccsc" />
        <g
           id="g21"
           transform="translate(1.3791964,-1.034226)">
          <path
             style="fill:none;stroke:#000000;stroke-width:2.06362;stroke-linecap:round;stroke-linejoin:round;stroke-dasharray:none;stroke-opacity:1;paint-order:stroke fill markers"
             d="m 47.268291,51.295204 -3.547519,-9.587889 10.35492,7.190917 -4.122793,-9.300252 v 0"
             id="path17" />
          <path
             style="fill:none;stroke:#000000;stroke-width:2.06362;stroke-linecap:round;stroke-linejoin:round;stroke-dasharray:none;stroke-opacity:1;paint-order:stroke fill markers"
             d="m 60.883092,36.433977 -4.889823,1.821698 3.643398,8.533221 5.273339,-1.629941 v 0"
             id="path18" />
          <path
             style="fill:none;stroke:#000000;stroke-width:2.06362;stroke-linecap:round;stroke-linejoin:round;stroke-dasharray:none;stroke-opacity:1;paint-order:stroke fill markers"
             d="m 62.896549,40.652648 -4.793944,1.725819"
             id="path19" />
          <path
             style="fill:none;stroke:#000000;stroke-width:2.06362;stroke-linecap:round;stroke-linejoin:round;stroke-dasharray:none;stroke-opacity:1;paint-order:stroke fill markers"
             d="m 65.772916,34.516399 6.8074,7.862068 -1.150546,-8.53322 6.232127,6.519764 -1.342304,-9.396131"
             id="path20"
             sodipodi:nodetypes="ccccc" />
          <path
             style="fill:none;stroke:#000000;stroke-width:2.06362;stroke-linecap:round;stroke-linejoin:round;stroke-dasharray:none;stroke-opacity:1;paint-order:stroke fill markers"
             d="m 85.445536,29.541331 c 0,0 -2.122393,-0.267973 -2.718508,0.158858 -0.76966,0.551092 -1.138127,2.064391 -0.800929,2.865732 0.460144,1.093518 1.688585,0.88253 2.858918,1.019771 0.893867,0.104821 2.003239,-0.143299 2.752406,0.355433 0.60724,0.40425 1.129594,1.191944 1.054668,1.917578 -0.09079,0.879285 -0.876198,1.769473 -1.72582,2.013457 -1.02986,0.295742 -2.864735,-0.619806 -2.864735,-0.619806"
             id="path21"
             sodipodi:nodetypes="cssssssc" />
        </g>
        <g
           id="g27"
           transform="translate(3.1419082,-2.7969379)">
          <ellipse
             style="fill:none;fill-opacity:1;stroke:#000000;stroke-width:1.65186;stroke-linecap:round;stroke-linejoin:round;stroke-dasharray:none;stroke-opacity:1;paint-order:stroke fill markers"
             id="ellipse24"
             cx="110.78565"
             cy="-136.86342"
             rx="10.402915"
             ry="4.2615194"
             transform="matrix(-0.697507,0.71657797,-0.99457713,0.10400161,0,0)" />
          <ellipse
             style="fill:none;fill-opacity:1;stroke:#000000;stroke-width:1.65186;stroke-linecap:round;stroke-linejoin:round;stroke-dasharray:none;stroke-opacity:1;paint-order:stroke fill markers"
             id="ellipse25"
             cx="19.482628"
             cy="-101.87167"
             rx="10.402915"
             ry="4.2615194"
             transform="matrix(-0.99999947,0.0010309,-0.76890929,-0.63935788,0,0)" />
          <ellipse
             style="fill:none;fill-opacity:1;stroke:#000000;stroke-width:1.43728;stroke-linecap:round;stroke-linejoin:round;stroke-dasharray:none;stroke-opacity:1;paint-order:stroke fill markers"
             id="ellipse26"
             cx="-123.9625"
             cy="91.93705"
             rx="8.5066137"
             ry="3.9454727"
             transform="matrix(0.10372088,-0.99460644,0.77403596,-0.63314163,0,0)" />
          <ellipse
             style="fill:none;fill-opacity:1;stroke:#000000;stroke-width:1.43728;stroke-linecap:round;stroke-linejoin:round;stroke-dasharray:none;stroke-opacity:1;paint-order:stroke fill markers"
             id="ellipse27"
             cx="64.952377"
             cy="28.337542"
             rx="8.5066137"
             ry="3.9454727"
             transform="matrix(0.8197124,0.57277533,0.17866104,0.98391068,0,0)" />
          <ellipse
             style="fill:#000000;fill-opacity:1;stroke:#000000;stroke-width:1.503;stroke-linecap:round;stroke-linejoin:round;stroke-dasharray:none;stroke-opacity:1;paint-order:stroke fill markers"
             id="path27"
             cx="20.774258"
             cy="85.127846"
             rx="0.71186441"
             ry="0.23728813"
             transform="rotate(-28.086862)" />
        </g>
        <path
           style="fill:none;stroke:#000000;stroke-width:2.44157;stroke-linecap:round;stroke-linejoin:round;stroke-dasharray:none;stroke-opacity:1;paint-order:stroke fill markers"
           d="M 104.02177,45.171413 78.277369,53.668912"
           id="path28"
           sodipodi:nodetypes="cc" />
      </g>
    </g>
  </g>
</svg>
